<svg width="16" height="17" viewBox="0 0 16 17" fill="none" xmlns="http://www.w3.org/2000/svg">
<path d="M2.98269 9.60422C3.76687 10.3884 4.71909 10.7805 5.83935 10.7805C6.95961 10.7805 7.91183 10.3884 8.69601 9.60422C9.4802 8.82003 9.87229 7.86781 9.87229 6.74755C9.87229 5.6273 9.4802 4.67508 8.69601 3.89089C7.91183 3.10671 6.95961 2.71462 5.83935 2.71462C4.71909 2.71462 3.76687 3.10671 2.98269 3.89089C2.19851 4.67508 1.80642 5.6273 1.80642 6.74755C1.80642 7.86781 2.19851 8.82003 2.98269 9.60422ZM11.2166 10.7805L15.6696 15.2335L14.3253 16.5778L9.87229 12.1248V11.4106L9.62023 11.1586C8.55598 12.0828 7.29569 12.5449 5.83935 12.5449C4.21498 12.5449 2.82865 11.9848 1.68039 10.8645C0.56013 9.74425 0 8.37193 0 6.74755C0 5.12318 0.56013 3.75086 1.68039 2.6306C2.82865 1.48234 4.21498 0.908203 5.83935 0.908203C7.46373 0.908203 8.83605 1.48234 9.95631 2.6306C11.0766 3.75086 11.6367 5.12318 11.6367 6.74755C11.6367 7.33569 11.4967 8.00785 11.2166 8.76402C10.9365 9.49219 10.6145 10.0803 10.2504 10.5284L10.5024 10.7805H11.2166Z" fill="#2E4C6D"/>
</svg>
